<svg xmlns="http://www.w3.org/2000/svg" xmlns:xlink="http://www.w3.org/1999/xlink" width="1094" zoomAndPan="magnify" viewBox="0 0 820.5 247.499998" height="330" preserveAspectRatio="xMidYMid meet" version="1.0"><defs><g/><clipPath id="987889eb05"><rect x="0" width="310" y="0" height="172"/></clipPath><clipPath id="9e86d4e158"><path d="M 2 48.613281 L 386 48.613281 L 386 233.488281 L 2 233.488281 Z M 2 48.613281 " clip-rule="nonzero"/></clipPath><clipPath id="28d98bb33f"><path d="M 195 96 L 445.179688 96 L 445.179688 118 L 195 118 Z M 195 96 " clip-rule="nonzero"/></clipPath><clipPath id="2a3542cb9a"><rect x="0" width="291" y="0" height="56"/></clipPath></defs><g transform="matrix(1, 0, 0, 1, 460, 1)"><g clip-path="url(#987889eb05)"><g fill="#000000" fill-opacity="1"><g transform="translate(1.364812, 122.420162)"><g><path d="M 22.1875 -12.484375 C 24.457031 -12.484375 26.101562 -13.0625 27.125 -14.21875 C 28.15625 -15.382812 28.820312 -16.945312 29.125 -18.90625 C 29.4375 -20.863281 29.617188 -23.0625 29.671875 -25.5 L 29.9375 -33.15625 C 29.476562 -33.394531 28.878906 -33.597656 28.140625 -33.765625 C 27.398438 -33.941406 26.664062 -34.03125 25.9375 -34.03125 C 23.5625 -34.03125 21.703125 -33.5 20.359375 -32.4375 C 19.023438 -31.382812 18.085938 -30.019531 17.546875 -28.34375 C 17.015625 -26.675781 16.75 -24.945312 16.75 -23.15625 C 16.75 -20.195312 17.101562 -17.707031 17.8125 -15.6875 C 18.53125 -13.664062 19.875 -12.597656 21.84375 -12.484375 Z M 34.515625 -49.390625 C 32.890625 -49.390625 31.53125 -49.945312 30.4375 -51.0625 C 29.351562 -52.1875 28.8125 -53.53125 28.8125 -55.09375 C 28.8125 -56.6875 29.351562 -58.035156 30.4375 -59.140625 C 31.53125 -60.242188 32.890625 -60.796875 34.515625 -60.796875 C 36.046875 -60.796875 37.363281 -60.242188 38.46875 -59.140625 C 39.570312 -58.035156 40.125 -56.6875 40.125 -55.09375 C 40.125 -53.53125 39.570312 -52.1875 38.46875 -51.0625 C 37.363281 -49.945312 36.046875 -49.390625 34.515625 -49.390625 Z M 47.609375 0 L 44.828125 0 C 42.148438 -0.226562 40.019531 -1.050781 38.4375 -2.46875 C 36.863281 -3.894531 35.640625 -6.394531 34.765625 -9.96875 C 33.203125 -7.175781 31.425781 -5.023438 29.4375 -3.515625 C 27.445312 -2.015625 24.265625 -1.265625 19.890625 -1.265625 C 14.054688 -1.265625 9.875 -3.296875 7.34375 -7.359375 C 4.820312 -11.421875 3.5625 -15.890625 3.5625 -20.765625 C 3.5625 -27.609375 5.476562 -33.269531 9.3125 -37.75 C 13.144531 -42.226562 18.378906 -44.46875 25.015625 -44.46875 C 30.328125 -44.46875 36.046875 -43.644531 42.171875 -42 L 42.78125 -41.90625 L 42.78125 -21.765625 C 42.957031 -15.265625 44.566406 -12.015625 47.609375 -12.015625 Z M 19.328125 -49.390625 C 17.785156 -49.390625 16.460938 -49.945312 15.359375 -51.0625 C 14.253906 -52.1875 13.703125 -53.53125 13.703125 -55.09375 C 13.703125 -56.6875 14.253906 -58.035156 15.359375 -59.140625 C 16.460938 -60.242188 17.785156 -60.796875 19.328125 -60.796875 C 20.953125 -60.796875 22.304688 -60.242188 23.390625 -59.140625 C 24.472656 -58.035156 25.015625 -56.6875 25.015625 -55.09375 C 25.015625 -53.53125 24.472656 -52.1875 23.390625 -51.0625 C 22.304688 -49.945312 20.953125 -49.390625 19.328125 -49.390625 Z M 19.328125 -49.390625 "/></g></g></g><g fill="#000000" fill-opacity="1"><g transform="translate(48.229439, 122.420162)"><g><path d="M 28.421875 0 L -1.34375 0 L -1.34375 -12.015625 L 28.421875 -12.015625 Z M 28.421875 0 "/></g></g></g><g fill="#000000" fill-opacity="1"><g transform="translate(74.947063, 122.420162)"><g><path d="M 28.421875 0 L -1.34375 0 L -1.34375 -12.015625 L 28.421875 -12.015625 Z M 28.421875 0 "/></g></g></g><g fill="#000000" fill-opacity="1"><g transform="translate(101.664687, 122.420162)"><g><path d="M 28.421875 0 L -1.34375 0 L -1.34375 -12.015625 L 28.421875 -12.015625 Z M 28.421875 0 "/></g></g></g><g fill="#000000" fill-opacity="1"><g transform="translate(128.38231, 122.420162)"><g><path d="M 28.421875 0 L -1.34375 0 L -1.34375 -12.015625 L 28.421875 -12.015625 Z M 28.421875 0 "/></g></g></g><g fill="#000000" fill-opacity="1"><g transform="translate(155.099934, 122.420162)"><g><path d="M 28.421875 0 L -1.34375 0 L -1.34375 -12.015625 L 28.421875 -12.015625 Z M 28.421875 0 "/></g></g></g><g fill="#000000" fill-opacity="1"><g transform="translate(181.817558, 122.420162)"><g><path d="M 23.546875 17.453125 C 21.921875 17.453125 20.5625 16.890625 19.46875 15.765625 C 18.382812 14.648438 17.84375 13.3125 17.84375 11.75 C 17.84375 10.15625 18.382812 8.804688 19.46875 7.703125 C 20.5625 6.597656 21.921875 6.046875 23.546875 6.046875 C 25.078125 6.046875 26.394531 6.597656 27.5 7.703125 C 28.601562 8.804688 29.15625 10.15625 29.15625 11.75 C 29.15625 13.3125 28.601562 14.648438 27.5 15.765625 C 26.394531 16.890625 25.078125 17.453125 23.546875 17.453125 Z M 8.40625 17.453125 C 6.832031 17.453125 5.492188 16.890625 4.390625 15.765625 C 3.285156 14.648438 2.734375 13.3125 2.734375 11.75 C 2.734375 10.15625 3.285156 8.804688 4.390625 7.703125 C 5.492188 6.597656 6.832031 6.046875 8.40625 6.046875 C 10 6.046875 11.34375 6.597656 12.4375 7.703125 C 13.539062 8.804688 14.09375 10.15625 14.09375 11.75 C 14.09375 13.3125 13.539062 14.648438 12.4375 15.765625 C 11.34375 16.890625 10 17.453125 8.40625 17.453125 Z M 35.46875 0 C 32.28125 0 30.175781 -0.0546875 29.15625 -0.171875 C 26.71875 -0.785156 24.425781 -2.0625 22.28125 -4 C 21.4375 -4.726562 20.664062 -5.65625 19.96875 -6.78125 C 16.40625 -2.320312 11.925781 -0.0625 6.53125 0 L -0.875 0 L -0.875 -12.015625 L 4 -12.015625 C 5.800781 -12.015625 7.441406 -12.375 8.921875 -13.09375 C 11.179688 -14.289062 12.546875 -16.164062 13.015625 -18.71875 C 13.304688 -20.507812 13.453125 -22.265625 13.453125 -23.984375 C 13.453125 -30.742188 13.128906 -36.066406 12.484375 -39.953125 L 25.015625 -39.953125 C 25.628906 -36.554688 25.9375 -32.769531 25.9375 -28.59375 C 25.9375 -22.84375 25.222656 -17.9375 23.796875 -13.875 C 25.859375 -12.632812 28.082031 -12.015625 30.46875 -12.015625 L 35.296875 -12.015625 Z M 35.46875 0 "/></g></g></g><g fill="#000000" fill-opacity="1"><g transform="translate(216.237167, 122.420162)"><g><path d="M 26.03125 -11.40625 C 28 -11.519531 29.335938 -12.59375 30.046875 -14.625 C 30.753906 -16.65625 31.109375 -19.148438 31.109375 -22.109375 C 31.109375 -23.878906 30.835938 -25.597656 30.296875 -27.265625 C 29.765625 -28.929688 28.832031 -30.300781 27.5 -31.375 C 26.164062 -32.445312 24.3125 -32.984375 21.9375 -32.984375 C 21.207031 -32.984375 20.472656 -32.890625 19.734375 -32.703125 C 18.992188 -32.515625 18.390625 -32.304688 17.921875 -32.078125 L 18.1875 -24.40625 C 18.25 -21.976562 18.421875 -19.785156 18.703125 -17.828125 C 18.992188 -15.867188 19.660156 -14.304688 20.703125 -13.140625 C 21.753906 -11.984375 23.410156 -11.40625 25.671875 -11.40625 Z M 27.375 0.09375 L -1.265625 0 L -1.265625 -11.921875 L 7.484375 -11.921875 C 6.847656 -13.835938 6.457031 -15.984375 6.3125 -18.359375 L 5.96875 -28.0625 L 5.96875 -40.8125 C 7.09375 -41.21875 9.378906 -41.75 12.828125 -42.40625 C 16.285156 -43.0625 19.609375 -43.390625 22.796875 -43.390625 C 29.472656 -43.390625 34.484375 -41.300781 37.828125 -37.125 C 41.179688 -32.945312 42.859375 -27.429688 42.859375 -20.578125 C 42.859375 -15.703125 41.695312 -11.082031 39.375 -6.71875 C 37.0625 -2.351562 33.0625 -0.0820312 27.375 0.09375 Z M 27.375 0.09375 "/></g></g></g><g fill="#000000" fill-opacity="1"><g transform="translate(262.492597, 122.420162)"><g><path d="M 22.796875 -11.3125 C 25.066406 -11.3125 26.722656 -11.890625 27.765625 -13.046875 C 28.804688 -14.210938 29.472656 -15.773438 29.765625 -17.734375 C 30.054688 -19.691406 30.226562 -21.890625 30.28125 -24.328125 L 30.546875 -31.984375 C 30.085938 -32.210938 29.488281 -32.421875 28.75 -32.609375 C 28.007812 -32.804688 27.273438 -32.90625 26.546875 -32.90625 C 24.171875 -32.90625 22.3125 -32.363281 20.96875 -31.28125 C 19.632812 -30.207031 18.695312 -28.835938 18.15625 -27.171875 C 17.625 -25.503906 17.359375 -23.785156 17.359375 -22.015625 C 17.359375 -19.023438 17.722656 -16.519531 18.453125 -14.5 C 19.179688 -12.488281 20.515625 -11.425781 22.453125 -11.3125 Z M 20.40625 21.015625 C 14.164062 21.015625 9.859375 20.015625 7.484375 18.015625 L 8.40625 10.140625 C 11.007812 10.578125 14.722656 10.796875 19.546875 10.796875 C 20.640625 10.796875 21.796875 10.734375 23.015625 10.609375 C 24.234375 10.492188 25.71875 9.84375 27.46875 8.65625 C 29.226562 7.46875 30.253906 6.164062 30.546875 4.75 C 30.691406 4.019531 30.796875 1.421875 30.859375 -3.046875 C 28.878906 -1.078125 25.425781 -0.09375 20.5 -0.09375 C 14.664062 -0.09375 10.484375 -2.128906 7.953125 -6.203125 C 5.429688 -10.273438 4.171875 -14.75 4.171875 -19.625 C 4.171875 -26.445312 6.085938 -32.097656 9.921875 -36.578125 C 13.753906 -41.054688 19.003906 -43.296875 25.671875 -43.296875 C 28.867188 -43.296875 32.191406 -42.96875 35.640625 -42.3125 C 39.085938 -41.664062 41.46875 -41.140625 42.78125 -40.734375 L 41.90625 5.09375 C 41.90625 10.71875 39.484375 14.773438 34.640625 17.265625 C 29.796875 19.765625 25.050781 21.015625 20.40625 21.015625 Z M 20.40625 21.015625 "/></g></g></g></g></g><g clip-path="url(#9e86d4e158)"><path fill="#ff3131" d="M 48.757812 97.453125 C 48.757812 97.453125 45.332031 70.996094 79.292969 65.203125 C 111.789062 59.664062 112.222656 49.550781 112.203125 48.683594 C 112.230469 49.367188 112.527344 58.9375 107.199219 67.3125 C 107.199219 67.3125 122.203125 64.414062 128.785156 58.097656 C 128.785156 58.097656 132.339844 80.472656 110.882812 88.105469 C 89.429688 95.742188 64.550781 87.976562 58.234375 99.691406 C 58.234375 99.691406 66.328125 107.917969 96.140625 96.792969 L 177.941406 96.792969 L 302.527344 149.179688 L 385.976562 149.179688 L 359.207031 162.210938 L 298.316406 162.210938 C 298.316406 162.210938 289.320312 172.164062 272.09375 180.121094 L 327.535156 206.78125 L 339.117188 186.824219 L 334.835938 210.167969 L 371.449219 233.039062 L 250.75 187.277344 C 242.167969 189.164062 232.484375 190.191406 221.710938 189.714844 L 187.488281 212.359375 L 127.207031 199.726562 L 127.730469 213.414062 L 117.199219 200.515625 L 90.085938 207.621094 L 111.9375 191.300781 L 180.644531 198.671875 L 190.953125 184.011719 C 137.425781 164.484375 93.367188 95.0625 2.160156 117.589844 C 2.160156 117.589844 0.582031 101.796875 48.757812 97.453125 " fill-opacity="1" fill-rule="nonzero"/></g><g clip-path="url(#28d98bb33f)"><path fill="#ff3131" d="M 246.40625 117.457031 L 195.289062 96.792969 L 445.210938 96.792969 L 404.960938 117.457031 L 246.40625 117.457031 " fill-opacity="1" fill-rule="nonzero"/></g><path fill="#ff3131" d="M 257.476562 121.933594 L 396.246094 121.933594 L 429.808594 140.863281 L 304.296875 140.863281 L 257.476562 121.933594 " fill-opacity="1" fill-rule="nonzero"/><g transform="matrix(1, 0, 0, 1, 476, 176)"><g clip-path="url(#2a3542cb9a)"><g fill="#000000" fill-opacity="1"><g transform="translate(2.827232, 43.447905)"><g><path d="M 2.625 0 L 2.625 -32.625 L 11.25 -32.625 C 15.0625 -32.625 18.097656 -31.410156 20.359375 -28.984375 C 22.617188 -26.566406 23.769531 -23.253906 23.8125 -19.046875 L 23.8125 -13.765625 C 23.8125 -9.472656 22.679688 -6.101562 20.421875 -3.65625 C 18.160156 -1.21875 15.039062 0 11.0625 0 Z M 9.203125 -27.140625 L 9.203125 -5.46875 L 11.1875 -5.46875 C 13.375 -5.46875 14.914062 -6.046875 15.8125 -7.203125 C 16.71875 -8.359375 17.191406 -10.359375 17.234375 -13.203125 L 17.234375 -18.859375 C 17.234375 -21.910156 16.804688 -24.035156 15.953125 -25.234375 C 15.097656 -26.441406 13.648438 -27.078125 11.609375 -27.140625 Z M 9.203125 -27.140625 "/></g></g></g><g fill="#000000" fill-opacity="1"><g transform="translate(41.673537, 43.447905)"><g><path d="M 19.46875 -14.109375 L 9.203125 -14.109375 L 9.203125 -5.46875 L 21.359375 -5.46875 L 21.359375 0 L 2.625 0 L 2.625 -32.625 L 21.3125 -32.625 L 21.3125 -27.140625 L 9.203125 -27.140625 L 9.203125 -19.421875 L 19.46875 -19.421875 Z M 19.46875 -14.109375 "/></g></g></g><g fill="#000000" fill-opacity="1"><g transform="translate(77.11703, 43.447905)"><g><path d="M 9.203125 -5.46875 L 20.765625 -5.46875 L 20.765625 0 L 2.625 0 L 2.625 -32.625 L 9.203125 -32.625 Z M 9.203125 -5.46875 "/></g></g></g><g fill="#000000" fill-opacity="1"><g transform="translate(112.000827, 43.447905)"><g><path d="M 9.5 0 L 2.90625 0 L 2.90625 -32.625 L 9.5 -32.625 Z M 9.5 0 "/></g></g></g><g fill="#000000" fill-opacity="1"><g transform="translate(137.347795, 43.447905)"><g><path d="M 13.25 -8.96875 L 18.734375 -32.625 L 26.078125 -32.625 L 16.671875 0 L 9.8125 0 L 0.46875 -32.625 L 7.78125 -32.625 Z M 13.25 -8.96875 "/></g></g></g><g fill="#000000" fill-opacity="1"><g transform="translate(176.798524, 43.447905)"><g><path d="M 19.46875 -14.109375 L 9.203125 -14.109375 L 9.203125 -5.46875 L 21.359375 -5.46875 L 21.359375 0 L 2.625 0 L 2.625 -32.625 L 21.3125 -32.625 L 21.3125 -27.140625 L 9.203125 -27.140625 L 9.203125 -19.421875 L 19.46875 -19.421875 Z M 19.46875 -14.109375 "/></g></g></g><g fill="#000000" fill-opacity="1"><g transform="translate(212.242017, 43.447905)"><g><path d="M 12.5 -11.921875 L 9.234375 -11.921875 L 9.234375 0 L 2.640625 0 L 2.640625 -32.625 L 13.15625 -32.625 C 16.457031 -32.625 19.003906 -31.769531 20.796875 -30.0625 C 22.597656 -28.351562 23.5 -25.921875 23.5 -22.765625 C 23.5 -18.429688 21.925781 -15.398438 18.78125 -13.671875 L 24.484375 -0.3125 L 24.484375 0 L 17.40625 0 Z M 9.234375 -17.40625 L 12.96875 -17.40625 C 14.289062 -17.40625 15.28125 -17.84375 15.9375 -18.71875 C 16.59375 -19.59375 16.921875 -20.765625 16.921875 -22.234375 C 16.921875 -25.503906 15.644531 -27.140625 13.09375 -27.140625 L 9.234375 -27.140625 Z M 9.234375 -17.40625 "/></g></g></g><g fill="#000000" fill-opacity="1"><g transform="translate(250.5734, 43.447905)"><g><path d="M 12.453125 -17.96875 L 17.359375 -32.625 L 24.53125 -32.625 L 15.796875 -11.828125 L 15.796875 0 L 9.125 0 L 9.125 -11.828125 L 0.359375 -32.625 L 7.53125 -32.625 Z M 12.453125 -17.96875 "/></g></g></g></g></g></svg>