<svg xmlns="http://www.w3.org/2000/svg" viewBox="0 0 512 512" width="512" height="512">
  <g fill="#ff3131" transform="translate(37.87,118.68) scale(0.9751)">
    <path d="M 48.757812 97.453125 C 48.757812 97.453125 45.332031 70.996094 79.292969 65.203125 C 111.789062 59.664062 112.222656 49.550781 112.203125 48.683594 C 112.230469 49.367188 112.527344 58.9375 107.199219 67.3125 C 107.199219 67.3125 122.203125 64.414062 128.785156 58.097656 C 128.785156 58.097656 132.339844 80.472656 110.882812 88.105469 C 89.429688 95.742188 64.550781 87.976562 58.234375 99.691406 C 58.234375 99.691406 66.328125 107.917969 96.140625 96.792969 L 177.941406 96.792969 L 302.527344 149.179688 L 385.976562 149.179688 L 359.207031 162.210938 L 298.316406 162.210938 C 298.316406 162.210938 289.320312 172.164062 272.09375 180.121094 L 327.535156 206.78125 L 339.117188 186.824219 L 334.835938 210.167969 L 371.449219 233.039062 L 250.75 187.277344 C 242.167969 189.164062 232.484375 190.191406 221.710938 189.714844 L 187.488281 212.359375 L 127.207031 199.726562 L 127.730469 213.414062 L 117.199219 200.515625 L 90.085938 207.621094 L 111.9375 191.300781 L 180.644531 198.671875 L 190.953125 184.011719 C 137.425781 164.484375 93.367188 95.0625 2.160156 117.589844 C 2.160156 117.589844 0.582031 101.796875 48.757812 97.453125 " />
    <path d="M 246.40625 117.457031 L 195.289062 96.792969 L 445.210938 96.792969 L 404.960938 117.457031 L 246.40625 117.457031 " />
    <path d="M 257.476562 121.933594 L 396.246094 121.933594 L 429.808594 140.863281 L 304.296875 140.863281 L 257.476562 121.933594 " />
  </g>
</svg>
